<?xml version="1.0" encoding="UTF-8"?>
<svg xmlns="http://www.w3.org/2000/svg" xmlns:xlink="http://www.w3.org/1999/xlink" width="596pt" height="596pt" viewBox="0 0 596 596" version="1.1">
<g id="surface1">
<path style=" stroke:none;fill-rule:evenodd;fill:rgb(79.296875%,78.90625%,78.90625%);fill-opacity:1;" d="M 254.539063 346.398438 C 307.679688 346.398438 350.757813 350.480469 350.757813 355.515625 C 350.757813 360.550781 307.679688 364.632813 254.539063 364.632813 C 201.398438 364.632813 158.316406 360.550781 158.316406 355.515625 C 158.316406 350.480469 201.398438 346.398438 254.539063 346.398438 "/>
<path style=" stroke:none;fill-rule:evenodd;fill:rgb(57.226563%,11.376953%,14.892578%);fill-opacity:1;" d="M 249.261719 76.179688 L 431.425781 153.503906 C 436.664063 155.730469 439.132813 161.835938 436.910156 167.078125 L 359.585938 349.238281 C 357.359375 354.480469 351.253906 356.949219 346.011719 354.722656 L 163.851563 277.398438 C 158.609375 275.175781 156.140625 269.066406 158.367188 263.828125 L 235.691406 81.664063 C 237.914063 76.425781 244.023438 73.957031 249.261719 76.179688 "/>
<path style=" stroke:none;fill-rule:evenodd;fill:rgb(43.920898%,8.616638%,11.767578%);fill-opacity:1;" d="M 426.878906 163.234375 C 427.265625 164.191406 427.289063 165.296875 426.859375 166.316406 L 352.058594 342.535156 C 351.191406 344.578125 348.8125 345.539063 346.769531 344.671875 L 170.554688 269.871094 C 169.53125 269.4375 168.78125 268.628906 168.394531 267.671875 L 426.878906 163.234375 "/>
<path style=" stroke:none;fill-rule:evenodd;fill:rgb(83.59375%,13.719177%,16.868591%);fill-opacity:1;" d="M 249.40625 92.214844 L 419.789063 164.539063 C 420.824219 164.980469 421.3125 166.1875 420.875 167.21875 L 348.550781 337.605469 C 348.109375 338.640625 346.902344 339.128906 345.867188 338.6875 L 175.484375 266.363281 C 174.449219 265.925781 173.960938 264.71875 174.402344 263.683594 L 246.726563 93.300781 C 247.164063 92.265625 248.371094 91.777344 249.40625 92.214844 "/>
<path style=" stroke:none;fill-rule:evenodd;fill:rgb(63.084412%,12.156677%,14.109802%);fill-opacity:1;" d="M 420.886719 165.65625 C 421.082031 166.144531 421.09375 166.703125 420.871094 167.21875 L 348.550781 337.605469 C 348.109375 338.640625 346.902344 339.128906 345.867188 338.6875 L 175.484375 266.363281 C 174.96875 266.144531 174.585938 265.734375 174.390625 265.246094 L 420.886719 165.65625 "/>
<path style=" stroke:none;fill-rule:evenodd;fill:rgb(100%,100%,100%);fill-opacity:1;" d="M 389.59375 170.738281 L 283.859375 224.039063 L 273.355469 176.804688 Z M 389.59375 170.738281 "/>
<path style=" stroke:none;fill-rule:evenodd;fill:rgb(90.234375%,90.234375%,90.234375%);fill-opacity:1;" d="M 208.3125 262.121094 L 314.042969 208.824219 L 324.546875 256.058594 Z M 208.3125 262.121094 "/>
<path style=" stroke:none;fill-rule:evenodd;fill:rgb(70.117188%,70.117188%,70.117188%);fill-opacity:1;" d="M 283.859375 224.039063 L 314.042969 208.824219 L 316.269531 218.824219 L 283.859375 224.039063 "/>
<path style=" stroke:none;fill-rule:evenodd;fill:rgb(83.59375%,13.719177%,16.868591%);fill-opacity:1;" d="M 140.089844 401.285156 L 140.089844 420.785156 L 135.589844 420.785156 C 135.589844 420.785156 127.902344 419.660156 127.902344 423.035156 C 127.902344 426.410156 131.277344 427.535156 135.964844 431.285156 C 140.652344 435.035156 147.964844 443.660156 147.964844 453.597656 C 147.964844 463.535156 141.402344 476.285156 120.777344 476.285156 C 100.152344 476.285156 101.839844 474.035156 101.839844 474.035156 L 101.839844 452.097656 C 101.839844 452.097656 108.777344 454.347656 115.152344 454.347656 C 121.527344 454.347656 122.652344 452.285156 122.652344 450.222656 C 122.652344 448.160156 101.089844 435.046875 101.089844 421.921875 C 101.089844 416.71875 102.402344 398.847656 125.839844 398.847656 C 135.042969 399.027344 140.089844 401.285156 140.089844 401.285156 "/>
<path style=" stroke:none;fill-rule:evenodd;fill:rgb(83.59375%,13.719177%,16.868591%);fill-opacity:1;" d="M 155.484375 398.847656 L 179.277344 398.847656 L 179.277344 476.285156 L 155.484375 476.285156 L 155.484375 398.847656 "/>
<path style=" stroke:none;fill-rule:evenodd;fill:rgb(83.59375%,13.719177%,16.868591%);fill-opacity:1;" d="M 283.527344 456.597656 L 305.820313 456.597656 L 305.820313 476.285156 L 261.234375 476.285156 L 261.234375 398.847656 L 305.820313 398.847656 L 305.820313 418.535156 L 283.527344 418.535156 L 283.527344 427.722656 L 303.027344 427.722656 L 303.027344 447.410156 L 283.527344 447.410156 L 283.527344 456.597656 "/>
<path style=" stroke:none;fill-rule:evenodd;fill:rgb(83.59375%,13.719177%,16.868591%);fill-opacity:1;" d="M 315.984375 398.847656 L 345.394531 398.847656 C 361.84375 398.847656 375.300781 412.304688 375.300781 428.753906 C 375.300781 445.199219 363.257813 458.65625 346.8125 458.65625 L 339.777344 458.65625 L 339.777344 476.285156 L 315.984375 476.285156 Z M 339.777344 419.46875 L 339.777344 438.035156 L 341.09375 438.035156 C 346.199219 438.035156 350.375 433.855469 350.375 428.753906 C 350.375 423.644531 346.199219 419.46875 341.09375 419.46875 L 339.777344 419.46875 "/>
<path style=" stroke:none;fill-rule:evenodd;fill:rgb(83.59375%,13.719177%,16.868591%);fill-opacity:1;" d="M 228.964844 398.753906 C 239.214844 398.753906 248.53125 402.734375 255.457031 409.238281 L 241.84375 426.566406 C 238.75 422.914063 234.128906 420.597656 228.964844 420.597656 C 219.648438 420.597656 212.09375 428.152344 212.09375 437.46875 C 212.09375 446.789063 219.648438 454.34375 228.964844 454.34375 C 234.128906 454.34375 238.75 452.027344 241.84375 448.375 L 255.457031 465.703125 C 248.53125 472.203125 239.214844 476.1875 228.964844 476.1875 C 207.582031 476.1875 190.246094 458.855469 190.246094 437.46875 C 190.246094 416.085938 207.582031 398.753906 228.964844 398.753906 "/>
<path style=" stroke:none;fill-rule:evenodd;fill:rgb(83.59375%,13.719177%,16.868591%);fill-opacity:1;" d="M 407.242188 398.847656 L 447.875 476.285156 L 366.609375 476.285156 Z M 407.242188 398.847656 "/>
<path style=" stroke:none;fill-rule:evenodd;fill:rgb(90.234375%,90.234375%,90.234375%);fill-opacity:1;" d="M 397.445313 476.285156 L 381.847656 476.285156 L 407.859375 436.601563 L 426.792969 457.234375 L 397.445313 476.285156 "/>
<path style=" stroke:none;fill-rule:evenodd;fill:rgb(70.117188%,70.117188%,70.117188%);fill-opacity:1;" d="M 397.136719 452.960938 L 407.859375 436.601563 L 411.867188 440.972656 L 397.136719 452.960938 "/>
<path style=" stroke:none;fill-rule:evenodd;fill:rgb(100%,100%,100%);fill-opacity:1;" d="M 412.96875 409.765625 L 418.519531 420.339844 L 397.136719 452.960938 L 385.5 440.28125 L 395.597656 421.039063 L 412.96875 409.765625 "/>
<path style=" stroke:none;fill-rule:evenodd;fill:rgb(83.59375%,13.719177%,16.868591%);fill-opacity:1;" d="M 456.234375 398.847656 L 494.1875 398.847656 L 494.1875 419.28125 L 480.027344 419.28125 L 480.027344 476.285156 L 456.234375 476.285156 L 456.234375 419.28125 L 442.074219 419.28125 L 442.074219 398.847656 L 456.234375 398.847656 "/>
<path style=" stroke:none;fill-rule:evenodd;fill:rgb(59.959412%,59.959412%,59.959412%);fill-opacity:1;" d="M 317.46875 494.082031 L 318.027344 490.257813 L 296.328125 490.257813 L 295.746094 494.082031 Z M 294.320313 503.527344 L 291.675781 521.011719 L 314.035156 521.011719 L 314.597656 517.1875 L 296.628906 517.1875 L 298.121094 507.261719 L 313.585938 507.261719 L 314.148438 503.527344 Z M 342.425781 504.535156 L 358.289063 490.257813 L 352.578125 490.257813 L 333.726563 507.261719 L 336.28125 490.257813 L 331.886719 490.257813 L 327.234375 521.011719 L 331.628906 521.011719 L 332.820313 513.015625 L 339.304688 507.21875 L 349.332031 521.011719 L 354.253906 521.011719 L 342.339844 504.625 Z M 373.796875 521.363281 C 381.441406 521.363281 386.625 517.761719 386.332031 511.785156 C 385.878906 502.429688 370.257813 505.503906 369.941406 499.046875 C 369.78125 495.796875 372.886719 493.640625 377.9375 493.640625 C 381.054688 493.640625 384.039063 494.476563 386.402344 496.101563 L 387.984375 492.5 C 385.398438 490.832031 381.753906 489.90625 377.976563 489.90625 C 370.464844 489.90625 365.367188 493.554688 365.65625 499.441406 C 366.136719 509.28125 381.746094 505.988281 382.058594 512.402344 C 382.222656 515.738281 378.972656 517.628906 374.011719 517.628906 C 370.1875 517.628906 366.300781 516.265625 363.867188 514.113281 L 362.105469 517.628906 C 364.449219 519.738281 369.097656 521.363281 373.796875 521.363281 Z M 413.773438 490.257813 L 402.351563 490.257813 L 397.699219 521.011719 L 402.09375 521.011719 L 403.484375 511.699219 L 411.699219 511.699219 C 420.570313 511.699219 425.886719 507.128906 425.503906 499.265625 C 425.222656 493.554688 420.933594 490.257813 413.773438 490.257813 Z M 411.601563 507.875 L 404.089844 507.875 L 406.183594 494.082031 L 413.5625 494.082031 C 418.21875 494.082031 420.949219 495.96875 421.128906 499.660156 C 421.390625 505.0625 417.882813 507.875 411.601563 507.875 Z M 462.996094 499.265625 C 462.71875 493.554688 458.425781 490.257813 451.222656 490.257813 L 439.757813 490.257813 L 435.105469 521.011719 L 439.542969 521.011719 L 440.929688 511.609375 L 449.980469 511.609375 L 455.796875 521.011719 L 460.453125 521.011719 L 454.339844 510.996094 C 460.066406 509.5 463.292969 505.371094 462.996094 499.265625 Z M 449.09375 507.875 L 441.492188 507.875 L 443.589844 494.082031 L 451.011719 494.082031 C 455.714844 494.082031 458.441406 495.96875 458.621094 499.660156 C 458.886719 505.0625 455.375 507.875 449.09375 507.875 Z M 498.964844 494.082031 L 499.523438 490.257813 L 477.820313 490.257813 L 477.242188 494.082031 Z M 475.8125 503.527344 L 473.171875 521.011719 L 495.53125 521.011719 L 496.089844 517.1875 L 478.121094 517.1875 L 479.617188 507.261719 L 495.078125 507.261719 L 495.644531 503.527344 Z M 518.238281 521.363281 C 525.878906 521.363281 531.066406 517.761719 530.773438 511.785156 C 530.316406 502.429688 514.695313 505.503906 514.382813 499.046875 C 514.222656 495.796875 517.324219 493.640625 522.378906 493.640625 C 525.496094 493.640625 528.480469 494.476563 530.84375 496.101563 L 532.425781 492.5 C 529.839844 490.832031 526.191406 489.90625 522.414063 489.90625 C 514.902344 489.90625 509.808594 493.554688 510.097656 499.441406 C 510.574219 509.28125 526.1875 505.988281 526.496094 512.402344 C 526.660156 515.738281 523.414063 517.628906 518.449219 517.628906 C 514.628906 517.628906 510.738281 516.265625 508.308594 514.113281 L 506.546875 517.628906 C 508.886719 519.738281 513.535156 521.363281 518.238281 521.363281 "/>
</g>
</svg>
